<?xml version="1.0" ?><svg enable-background="new 0 0 24 24" id="Layer_1" version="1.1" viewBox="0 0 24 24" xml:space="preserve" xmlns="http://www.w3.org/2000/svg" xmlns:xlink="http://www.w3.org/1999/xlink"><g><path d="M20.5800781,9.4145508C20.3974609,9.237793,20.1874886,9.1362305,20,9.0776367   c-0.0107422-1.3969727-0.1396484-4.9248047-1.1464844-5.9311523C18.1152344,2.4082031,15.4394531,0,12,0   S5.8847656,2.4082031,5.1464844,3.1464844C4.1396484,4.152832,4.0107422,7.6806641,4,9.0776367   C3.812489,9.1362305,3.6025391,9.237793,3.4199219,9.4145508C3.2285156,9.6000977,3,9.9394531,3,10.5   c0,1.0444336,0.4824219,5.8461914,0.5029297,6.050293c0.0166016,0.1704102,0.1201172,0.3203125,0.2734375,0.3969727   l0.7197266,0.3598633c-0.0078125,1.2192383,0.0625,3.4584961,0.6503906,4.0463867   c0.1191406,0.1191406,0.2675781,0.3061523,0.4414063,0.5224609C6.2685547,22.7216797,7.296875,24,8.5,24   c0.8359375,0,1.4785156-0.3681641,1.8701172-0.6772461C10.6376953,23.1118164,10.9580078,23,11.2958984,23h1.4082031   c0.3378906,0,0.6582031,0.1118164,0.9257813,0.3227539C14.0214844,23.6318359,14.6640625,24,15.5,24   c1.203125,0,2.2314453-1.2783203,2.9121094-2.1240234c0.1738281-0.2163086,0.3222656-0.4033203,0.4414063-0.5224609   c0.5878906-0.5878906,0.6582031-2.8271484,0.6503906-4.0463867l0.7197266-0.3598633   c0.1533203-0.0766602,0.2568359-0.2265625,0.2734375-0.3969727C20.5175781,16.3461914,21,11.5444336,21,10.5   C21,9.9394531,20.7714844,9.6000977,20.5800781,9.4145508z" fill="#E72D2B"/><path d="M15.621521,23.75c-0.8649292,0-1.5298462-0.3681641-1.9350586-0.6772461   C13.4096069,22.8618164,13.078186,22.75,12.7285767,22.75h-1.4571533c-0.3496094,0-0.6810303,0.1118164-0.9578857,0.3227539   C9.9083252,23.3818359,9.2434082,23.75,8.378479,23.75c-1.0239258,0-1.9217529-0.8634033-2.6013794-1.6409302   C6.4525146,22.9380493,7.4017944,24,8.5,24c0.8359375,0,1.4785156-0.3681641,1.8701172-0.6772461   C10.6376953,23.1118164,10.9580078,23,11.2958984,23h1.4082031c0.3378906,0,0.6582031,0.1118164,0.9257813,0.3227539   C14.0214844,23.6318359,14.6640625,24,15.5,24c1.0982056,0,2.0474854-1.0619507,2.7229004-1.8909302   C17.5432739,22.8865967,16.6454468,23.75,15.621521,23.75z" fill="#010101" opacity="0.1"/><path d="M17.9235229,8.2156982l0.9143066-1.8286743c-0.1362915-1.1803589-0.3613281-2.2034912-0.6913452-2.5335083   c-0.2925415-0.2925415-1.3656006-1.2987671-2.8719482-2.0341187C14.2167969,4.6934814,13.791687,4.5256958,12,4.5256958   S9.7832031,4.6934814,8.7254639,1.819397C7.2191162,2.5547485,6.1460571,3.5609741,5.8535156,3.8535156   C5.5234985,4.1835327,5.2984619,5.206665,5.1621704,6.3870239l0.9143066,1.8286743L5.5184326,9.8898926   c-0.4786377,1.4359741-0.4016113,3.0047607,0.2457275,4.3729858c0.6571045,1.388855,1.3804932,3.2716064,1.3804932,4.8287964   l-0.4855347,1.456543l1.456604,0.9710693l1.456604-0.9710693h4.8553467l1.456604,0.9710693l1.456604-0.9710693l-0.4855347-1.456543   c0-1.5571899,0.7233887-3.4399414,1.3804932-4.8287964c0.6473389-1.3682251,0.7243652-2.9370117,0.2457275-4.3729858   L17.9235229,8.2156982z" fill="#F9C612"/><g id="XMLID_1400_"><path d="M17.3408566,9.3810177l0.4855328,1.4565973c0,0,0.2225361,0.4855328-1.4565983,0.4855328    c-2.4276609,0-2.4276609-1.2261314-2.4276609-1.2261314L17.3408566,9.3810177z" fill="#FFFFFF" id="XMLID_30_"/></g><g id="XMLID_1394_"><path d="M6.6591434,9.3810177L6.1736112,10.837615c0,0-0.2225356,0.4855328,1.4565973,0.4855328    c2.4276614,0,2.4276614-1.2261314,2.4276614-1.2261314L6.6591434,9.3810177z" fill="#FFFFFF" id="XMLID_29_"/></g><polygon fill="#010101" id="XMLID_1393_" opacity="0.2" points="15.8842592,19.8199654 14.9131947,18.8488998 12,18.8488998    9.0868053,18.8488998 8.1157408,19.8199654 7.1446757,19.0916653 8.1157408,20.0627308 9.0868053,19.0916653 12,19.0916653    14.9131947,19.0916653 15.8842592,20.0627308 16.8553238,19.0916653  "/><g id="XMLID_1388_"><linearGradient gradientUnits="userSpaceOnUse" id="SVGID_1_" x1="15.8897419" x2="18.17593" y1="16.5288277" y2="18.8150158"><stop offset="0" style="stop-color:#010101;stop-opacity:0.1"/><stop offset="1" style="stop-color:#010101;stop-opacity:0"/></linearGradient><path d="M16.9039249,18.3836975c0.1667233-1.6141357,0.9026241-3.154726,1.3417931-4.1484814    c0.0894375-0.191617,0.1728554-0.3934288,0.2400665-0.5918617c-3.2932873,3.0318508-4.0581226,6.9049091-4.0581226,6.9049091    l1.4565973,0.9710636l1.4565973-0.9710636l-0.4855328-1.4565983C16.8553238,18.8622952,16.875061,18.624567,16.9039249,18.3836975    z" fill="url(#SVGID_1_)"/></g><path d="M6.6591187,9.3809814c0,0,4.1270752,0.9710693,5.3408813,0.9710693   s5.3408813-0.9710693,5.3408813-0.9710693l1.4969482-2.9939575l-1.4969482,2.7512207c0,0-4.1270752,0.9710693-5.3408813,0.9710693   S6.6591187,9.1382446,6.6591187,9.1382446L5.1621704,6.3870239L6.6591187,9.3809814z" fill="#010101" opacity="0.1"/><g id="XMLID_1364_"><linearGradient gradientTransform="matrix(-1 0 0 1 176.8851471 0)" gradientUnits="userSpaceOnUse" id="SVGID_2_" x1="168.7753296" x2="171.0673065" y1="16.5145226" y2="18.8065052"><stop offset="0" style="stop-color:#010101;stop-opacity:0.1"/><stop offset="1" style="stop-color:#010101;stop-opacity:0"/></linearGradient><path d="M7.0996323,18.3811436c-0.1937499-1.5615349-0.8885155-3.1712713-1.3487468-4.1465588    c-0.0894375-0.191617-0.1768541-0.414897-0.2440653-0.6133299c3.2932868,3.0318518,4.0655179,6.9270086,4.0655179,6.9270086    l-1.4565973,0.9710636l-1.4565973-0.9710636l0.4855323-1.4565983C7.1446757,18.8622952,7.1295033,18.621891,7.0996323,18.3811436z    " fill="url(#SVGID_2_)"/></g><path d="M12,0c-1.3521118,0-2.5788574,0.3761597-3.6236572,0.8727417L8.7254639,1.819397   C9.7832031,4.6934814,10.208313,4.5256958,12,4.5256958s2.2167969,0.1677856,3.2745361-2.7062988l0.3491211-0.9466553   C14.5788574,0.3761597,13.3521118,0,12,0z" fill="#EE3325"/><path d="M8.7254639,1.819397C9.7832031,4.6934814,10.208313,4.5256958,12,4.5256958   s2.2167969,0.1677856,3.2745361-2.7062988l0.105072-0.2849065C14.3218689,4.4085751,13.791687,4.2756958,12,4.2756958   S9.6943474,4.4525456,8.6366081,1.5784613L8.7254639,1.819397z" fill="#010101" opacity="0.1"/><path d="M3.4199219,9.6645508C3.6025391,9.487793,3.812489,9.3862305,4,9.3276367   C4.0107422,7.9306641,4.1396484,4.402832,5.1464844,3.3964844C5.8847656,2.6582031,8.5605469,0.25,12,0.25   s6.1152344,2.4082031,6.8535156,3.1464844C19.8603516,4.402832,19.9892578,7.9306641,20,9.3276367   c0.1874886,0.0585938,0.3974609,0.1601563,0.5800781,0.3369141c0.1856079,0.1799316,0.4021606,0.5087891,0.4152832,1.0396118   C20.9979858,10.6277466,21,10.5560303,21,10.5c0-0.5605469-0.2285156-0.8999023-0.4199219-1.0854492   C20.3974609,9.237793,20.1874886,9.1362305,20,9.0776367c-0.0107422-1.3969727-0.1396484-4.9248047-1.1464844-5.9311523   C18.1152344,2.4082031,15.4394531,0,12,0S5.8847656,2.4082031,5.1464844,3.1464844   C4.1396484,4.152832,4.0107422,7.6806641,4,9.0776367C3.812489,9.1362305,3.6025391,9.237793,3.4199219,9.4145508   C3.2285156,9.6000977,3,9.9394531,3,10.5c0,0.0560303,0.0020142,0.1277466,0.0046387,0.2041626   C3.0177612,10.1733398,3.234314,9.8444824,3.4199219,9.6645508z" fill="#FFFFFF" opacity="0.2"/><g><linearGradient gradientUnits="userSpaceOnUse" id="SVGID_3_" x1="10.3178883" x2="18.5821724" y1="6.8249073" y2="15.0891914"><stop offset="0" style="stop-color:#3E2823;stop-opacity:0.1"/><stop offset="1" style="stop-color:#3E2823;stop-opacity:0.02"/></linearGradient><path d="M17.9235229,8.2156982l-0.5826416,1.1652832c0,0-4.1270752,0.9710693-5.3408813,0.9710693    S6.6591187,9.3809814,6.6591187,9.3809814l10.4390259,10.4390259l-0.2427979-0.7283325    c0-1.5571899,0.7233887-3.4399414,1.3804932-4.8287964c0.6473389-1.3682251,0.7243652-2.9370117,0.2457275-4.3729858    L17.9235229,8.2156982z" fill="url(#SVGID_3_)"/></g><linearGradient gradientUnits="userSpaceOnUse" id="SVGID_4_" x1="2.6951625" x2="21.0707035" y1="8.1605177" y2="16.7291737"><stop offset="0" style="stop-color:#FFFFFF;stop-opacity:0.2"/><stop offset="1" style="stop-color:#FFFFFF;stop-opacity:0"/></linearGradient><path d="M20.5800781,9.4145508C20.3974609,9.237793,20.1874886,9.1362305,20,9.0776367   c-0.0107422-1.3969727-0.1396484-4.9248047-1.1464844-5.9311523C18.1152344,2.4082031,15.4394531,0,12,0   S5.8847656,2.4082031,5.1464844,3.1464844C4.1396484,4.152832,4.0107422,7.6806641,4,9.0776367   C3.812489,9.1362305,3.6025391,9.237793,3.4199219,9.4145508C3.2285156,9.6000977,3,9.9394531,3,10.5   c0,1.0444336,0.4824219,5.8461914,0.5029297,6.050293c0.0166016,0.1704102,0.1201172,0.3203125,0.2734375,0.3969727   l0.7197266,0.3598633c-0.0078125,1.2192383,0.0625,3.4584961,0.6503906,4.0463867   c0.1191406,0.1191406,0.2675781,0.3061523,0.4414063,0.5224609C6.2685547,22.7216797,7.296875,24,8.5,24   c0.8359375,0,1.4785156-0.3681641,1.8701172-0.6772461C10.6376953,23.1118164,10.9580078,23,11.2958984,23h1.4082031   c0.3378906,0,0.6582031,0.1118164,0.9257813,0.3227539C14.0214844,23.6318359,14.6640625,24,15.5,24   c1.203125,0,2.2314453-1.2783203,2.9121094-2.1240234c0.1738281-0.2163086,0.3222656-0.4033203,0.4414063-0.5224609   c0.5878906-0.5878906,0.6582031-2.8271484,0.6503906-4.0463867l0.7197266-0.3598633   c0.1533203-0.0766602,0.2568359-0.2265625,0.2734375-0.3969727C20.5175781,16.3461914,21,11.5444336,21,10.5   C21,9.9394531,20.7714844,9.6000977,20.5800781,9.4145508z" fill="url(#SVGID_4_)"/></g><g/><g/><g/><g/><g/><g/><g/><g/><g/><g/><g/><g/><g/><g/><g/></svg>